<svg width="1238" height="1238" viewBox="0 0 1238 1238" fill="none" xmlns="http://www.w3.org/2000/svg">
<g clip-path="url(#clip0_1_2)">
<path d="M1238 0H0V1238H1238V0Z" fill="white"/>
<path d="M919.604 255.936C893.499 237.732 853.489 240.496 831.532 262.139C795.994 297.197 807.297 364.685 690.762 369.203C648.556 373.922 603.91 347.089 558.939 351.943C420.202 366.034 437.117 539.44 576.098 535.866C737.685 524.809 641.969 333.874 856.335 346.145C934.567 354.64 962.054 285.466 919.604 255.868V255.936ZM571.056 467.704C555.116 467.704 542.105 456.984 542.105 443.702C542.105 430.42 555.035 419.701 571.056 419.701C587.076 419.701 600.006 430.42 600.006 443.702C600.006 456.984 587.076 467.704 571.056 467.704ZM877.804 308.322C868.615 308.322 861.133 302.119 861.133 294.5C861.133 286.882 868.615 280.679 877.804 280.679C886.994 280.679 894.475 286.882 894.475 294.5C894.475 302.119 886.994 308.322 877.804 308.322Z" fill="#AF1E39"/>
<path d="M764.278 395.025C762.57 396.508 761.106 398.059 759.805 399.677C754.357 406.486 752.486 414.981 753.869 423.139C757.284 443.298 755.983 464.67 748.095 486.717C726.707 546.586 662.3 590.41 587.158 595.197C476.722 602.208 384.99 527.911 390.032 436.893C394.261 360.37 468.589 297.534 560.809 292.68C608.22 290.186 652.053 302.726 686.127 325.042C691.82 328.75 698.325 331.582 705.482 332.526C743.785 337.785 772.492 310.749 757.854 280.882C753.706 272.387 746.062 265.442 737.198 259.981C686.452 228.765 622.37 211.641 553.327 215.551C417.194 223.304 306.92 314.592 297.405 427.521C286.102 561.419 413.778 673 572.926 673C732.074 673 849.097 570.453 849.097 444.039C849.097 433.926 848.284 423.948 846.739 414.172C845.519 406.688 841.941 399.474 835.679 394.013C825.595 385.181 810.469 381.338 789.651 384.507C780.217 385.99 771.109 389.226 764.522 395.025H764.278Z" fill="#AF1E39"/>
<path d="M368.875 811.492C366.371 806.878 362.746 803.385 358 801.012C353.386 798.507 347.916 797.255 341.589 797.255C330.648 797.255 321.882 800.88 315.291 808.13C308.7 815.248 305.405 824.805 305.405 836.801C305.405 849.587 308.832 859.605 315.686 866.855C322.673 873.973 332.23 877.533 344.357 877.533C352.661 877.533 359.648 875.423 365.316 871.205C371.116 866.987 375.334 860.923 377.971 853.014H335.064V828.101H408.618V859.539C406.114 867.976 401.83 875.819 395.766 883.069C389.834 890.319 382.255 896.185 373.027 900.667C363.8 905.148 353.386 907.389 341.786 907.389C328.077 907.389 315.818 904.423 305.009 898.492C294.332 892.428 285.961 884.058 279.898 873.38C273.966 862.703 271 850.51 271 836.801C271 823.092 273.966 810.898 279.898 800.221C285.961 789.412 294.332 781.041 305.009 775.11C315.686 769.046 327.88 766.014 341.589 766.014C358.198 766.014 372.171 770.035 383.507 778.076C394.975 786.116 402.555 797.255 406.246 811.492H368.875Z" fill="#424143"/>
<path d="M460.565 767.596V850.642C460.565 858.946 462.608 865.339 466.695 869.821C470.781 874.303 476.779 876.544 484.688 876.544C492.597 876.544 498.661 874.303 502.879 869.821C507.097 865.339 509.206 858.946 509.206 850.642V767.596H543.018V850.444C543.018 862.835 540.381 873.314 535.108 881.883C529.836 890.451 522.717 896.91 513.754 901.26C504.922 905.61 495.036 907.785 484.095 907.785C473.154 907.785 463.333 905.676 454.633 901.458C446.065 897.108 439.276 890.648 434.267 882.08C429.258 873.38 426.754 862.835 426.754 850.444V767.596H460.565Z" fill="#424143"/>
<path d="M653.167 881.883H601.363L593.058 906.401H557.665L607.888 767.596H647.038L697.261 906.401H661.472L653.167 881.883ZM644.467 855.782L627.265 804.966L610.26 855.782H644.467Z" fill="#424143"/>
<path d="M783.332 906.401L754.464 854.003H746.357V906.401H712.546V767.596H769.294C780.234 767.596 789.528 769.507 797.173 773.33C804.95 777.153 810.75 782.426 814.573 789.148C818.396 795.739 820.307 803.121 820.307 811.294C820.307 820.521 817.671 828.76 812.398 836.01C807.257 843.26 799.612 848.401 789.462 851.432L821.494 906.401H783.332ZM746.357 830.078H767.316C773.512 830.078 778.125 828.562 781.157 825.53C784.321 822.498 785.903 818.214 785.903 812.678C785.903 807.405 784.321 803.253 781.157 800.221C778.125 797.189 773.512 795.673 767.316 795.673H746.357V830.078Z" fill="#424143"/>
<path d="M893.534 767.596C908.166 767.596 920.953 770.496 931.894 776.296C942.835 782.096 951.271 790.269 957.203 800.814C963.266 811.228 966.298 823.289 966.298 836.998C966.298 850.576 963.266 862.637 957.203 873.183C951.271 883.728 942.769 891.901 931.696 897.701C920.755 903.501 908.034 906.401 893.534 906.401H841.532V767.596H893.534ZM891.359 877.137C904.146 877.137 914.098 873.644 921.216 866.658C928.334 859.671 931.894 849.785 931.894 836.998C931.894 824.212 928.334 814.26 921.216 807.141C914.098 800.023 904.146 796.464 891.359 796.464H875.344V877.137H891.359Z" fill="#424143"/>
</g>
<defs>
<clipPath id="clip0_1_2">
<rect width="1238" height="1238" fill="white"/>
</clipPath>
</defs>
</svg>
