<svg width="348" height="347" viewBox="0 0 348 347" fill="none" xmlns="http://www.w3.org/2000/svg">
<path d="M298.26 20.4679C287.464 11.3661 270.917 12.7482 261.836 23.5693C247.139 41.0986 251.814 74.8427 203.618 77.1013C186.163 79.461 167.699 66.0443 149.1 68.4714C91.7225 75.5169 98.7181 162.22 156.196 160.433C223.024 154.905 183.439 59.437 272.094 65.5723C304.449 69.8198 315.816 35.233 298.26 20.4342V20.4679ZM154.111 126.352C147.519 126.352 142.138 120.992 142.138 114.351C142.138 107.71 147.485 102.35 154.111 102.35C160.737 102.35 166.084 107.71 166.084 114.351C166.084 120.992 160.737 126.352 154.111 126.352ZM280.973 46.6608C277.173 46.6608 274.078 43.5595 274.078 39.7502C274.078 35.9409 277.173 32.8396 280.973 32.8396C284.774 32.8396 287.868 35.9409 287.868 39.7502C287.868 43.5595 284.774 46.6608 280.973 46.6608Z" fill="#AF1E39"/>
<path d="M234.022 90.0123C233.316 90.754 232.71 91.5293 232.172 92.3384C229.919 95.7431 229.145 99.9906 229.717 104.07C231.13 114.149 230.592 124.835 227.329 135.858C218.484 165.793 191.847 187.705 160.77 190.098C115.097 193.604 77.1597 156.455 79.2449 110.946C80.9938 72.6852 111.734 41.2672 149.873 38.8401C169.481 37.5928 187.609 43.8629 201.701 55.021C204.055 56.8751 206.746 58.2909 209.706 58.7629C225.547 61.3923 237.419 47.8744 231.365 32.9408C229.65 28.6933 226.488 25.2211 222.822 22.4906C201.836 6.88268 175.333 -1.67974 146.779 0.275454C90.4782 4.15214 44.8724 49.7959 40.9374 106.261C36.2625 173.209 89.0656 229 154.885 229C220.704 229 269.101 177.727 269.101 114.52C269.101 109.463 268.765 104.474 268.125 99.5861C267.621 95.8442 266.141 92.2372 263.551 89.5067C259.381 85.0906 253.125 83.1691 244.515 84.7535C240.614 85.4952 236.847 87.1132 234.123 90.0123H234.022Z" fill="#AF1E39"/>
<path d="M48.9376 298.246C47.6853 295.939 45.8728 294.192 43.5001 293.006C41.1932 291.754 38.458 291.128 35.2944 291.128C29.8239 291.128 25.4409 292.94 22.1455 296.565C18.85 300.124 17.2023 304.903 17.2023 310.9C17.2023 317.294 18.9159 322.303 22.3432 325.928C25.8364 329.487 30.6148 331.266 36.6785 331.266C40.8307 331.266 44.3239 330.212 47.158 328.103C50.058 325.994 52.1671 322.962 53.4853 319.007H32.0319V306.55H68.8092V322.27C67.5569 326.488 65.4149 330.409 62.3831 334.034C59.4171 337.659 55.6274 340.592 51.0137 342.833C46.4001 345.074 41.1932 346.195 35.3932 346.195C28.5387 346.195 22.4091 344.712 17.0046 341.746C11.6659 338.714 7.48069 334.529 4.44887 329.19C1.48296 323.851 0 317.755 0 310.9C0 304.046 1.48296 297.949 4.44887 292.611C7.48069 287.206 11.6659 283.021 17.0046 280.055C22.3432 277.023 28.4398 275.507 35.2944 275.507C43.5989 275.507 50.5853 277.517 56.2535 281.538C61.9876 285.558 65.7774 291.128 67.6228 298.246H48.9376Z" fill="#424143"/>
<path d="M94.7826 276.298V317.821C94.7826 321.973 95.8042 325.17 97.8473 327.411C99.8905 329.651 102.889 330.772 106.844 330.772C110.798 330.772 113.83 329.651 115.939 327.411C118.049 325.17 119.103 321.973 119.103 317.821V276.298H136.009V317.722C136.009 323.917 134.691 329.157 132.054 333.441C129.418 337.725 125.859 340.955 121.377 343.13C116.961 345.305 112.018 346.392 106.547 346.392C101.077 346.392 96.1667 345.338 91.8167 343.229C87.5326 341.054 84.1382 337.824 81.6337 333.54C79.1291 329.19 77.8769 323.917 77.8769 317.722V276.298H94.7826Z" fill="#424143"/>
<path d="M191.084 333.441H165.181L161.029 345.7H143.332L168.444 276.298H188.019L213.13 345.7H195.236L191.084 333.441ZM186.734 320.391L178.132 294.983L169.63 320.391H186.734Z" fill="#424143"/>
<path d="M256.166 345.7L241.732 319.501H237.679V345.7H220.773V276.298H249.147C254.617 276.298 259.264 277.254 263.087 279.165C266.975 281.076 269.875 283.713 271.787 287.074C273.698 290.37 274.654 294.061 274.654 298.147C274.654 302.761 273.335 306.88 270.699 310.505C268.129 314.13 264.306 316.7 259.231 318.216L275.247 345.7H256.166ZM237.679 307.539H248.158C251.256 307.539 253.563 306.781 255.079 305.265C256.66 303.749 257.451 301.607 257.451 298.839C257.451 296.203 256.66 294.126 255.079 292.611C253.563 291.095 251.256 290.337 248.158 290.337H237.679V307.539Z" fill="#424143"/>
<path d="M311.267 276.298C318.583 276.298 324.976 277.748 330.447 280.648C335.917 283.548 340.135 287.634 343.101 292.907C346.133 298.114 347.649 304.145 347.649 310.999C347.649 317.788 346.133 323.819 343.101 329.091C340.135 334.364 335.884 338.45 330.348 341.35C324.877 344.25 318.517 345.7 311.267 345.7H285.266V276.298H311.267ZM310.18 331.069C316.573 331.069 321.549 329.322 325.108 325.829C328.667 322.336 330.447 317.392 330.447 310.999C330.447 304.606 328.667 299.63 325.108 296.071C321.549 292.512 316.573 290.732 310.18 290.732H302.172V331.069H310.18Z" fill="#424143"/>
</svg>
