<svg width="2405" height="2405" viewBox="0 0 2405 2405" fill="none" xmlns="http://www.w3.org/2000/svg">
<g clip-path="url(#clip0_1_2)">
<path d="M2405 0H0V2405H2405V0Z" fill="white"/>
<path d="M1543.04 755.858C1513.54 729.24 1468.32 733.282 1443.5 764.928C1403.34 816.192 1416.12 914.877 1284.42 921.482C1236.72 928.383 1186.26 889.146 1135.44 896.244C978.645 916.848 997.761 1170.41 1154.83 1165.19C1337.44 1149.02 1229.27 869.823 1471.54 887.766C1559.95 900.187 1591.01 799.039 1543.04 755.76V755.858ZM1149.13 1065.52C1131.12 1065.52 1116.41 1049.84 1116.41 1030.42C1116.41 1011 1131.02 995.322 1149.13 995.322C1167.24 995.322 1181.85 1011 1181.85 1030.42C1181.85 1049.84 1167.24 1065.52 1149.13 1065.52ZM1495.8 832.459C1485.41 832.459 1476.96 823.389 1476.96 812.249C1476.96 801.109 1485.41 792.039 1495.8 792.039C1506.18 792.039 1514.64 801.109 1514.64 812.249C1514.64 823.389 1506.18 832.459 1495.8 832.459Z" fill="#AF1E39"/>
<path d="M1367.5 959.24C1365.57 961.409 1363.91 963.676 1362.44 966.042C1356.29 976 1354.17 988.421 1355.73 1000.35C1359.59 1029.83 1358.12 1061.08 1349.21 1093.32C1325.04 1180.86 1252.25 1244.94 1167.33 1251.94C1042.52 1262.19 938.85 1153.55 944.548 1020.46C949.327 908.567 1033.33 816.685 1137.55 809.587C1191.13 805.94 1240.67 824.277 1279.18 856.908C1285.61 862.331 1292.96 866.471 1301.05 867.851C1344.34 875.541 1376.78 836.008 1360.24 792.335C1355.55 779.913 1346.91 769.759 1336.89 761.773C1279.54 716.128 1207.12 691.088 1129.09 696.806C975.244 708.143 850.62 841.628 839.867 1006.76C827.092 1202.55 971.384 1365.71 1151.24 1365.71C1331.1 1365.71 1463.36 1215.76 1463.36 1030.91C1463.36 1016.12 1462.44 1001.53 1460.69 987.238C1459.31 976.295 1455.27 965.747 1448.19 957.761C1436.8 944.847 1419.7 939.227 1396.17 943.861C1385.51 946.03 1375.22 950.762 1367.77 959.24H1367.5Z" fill="#AF1E39"/>
<path d="M861.729 1568.2C858.307 1561.45 853.354 1556.34 846.87 1552.87C840.566 1549.21 833.092 1547.38 824.447 1547.38C809.498 1547.38 797.521 1552.68 788.516 1563.28C779.51 1573.69 775.008 1587.66 775.008 1605.2C775.008 1623.9 779.69 1638.55 789.056 1649.15C798.602 1659.56 811.659 1664.76 828.229 1664.76C839.576 1664.76 849.121 1661.68 856.866 1655.51C864.791 1649.34 870.554 1640.48 874.156 1628.91H815.532V1592.48H916.031V1638.45C912.609 1650.79 906.755 1662.26 898.47 1672.86C890.366 1683.46 880.01 1692.04 867.402 1698.59C854.795 1705.14 840.566 1708.42 824.717 1708.42C805.986 1708.42 789.236 1704.08 774.467 1695.41C759.879 1686.54 748.442 1674.3 740.157 1658.69C732.052 1643.08 728 1625.25 728 1605.2C728 1585.16 732.052 1567.33 740.157 1551.72C748.442 1535.91 759.879 1523.67 774.467 1515C789.056 1506.13 805.716 1501.7 824.447 1501.7C847.14 1501.7 866.231 1507.58 881.721 1519.33C897.39 1531.09 907.746 1547.38 912.789 1568.2H861.729Z" fill="#424143"/>
<path d="M987.007 1504.01V1625.44C987.007 1637.59 989.798 1646.93 995.382 1653.49C1000.96 1660.04 1009.16 1663.32 1019.97 1663.32C1030.77 1663.32 1039.06 1660.04 1044.82 1653.49C1050.58 1646.93 1053.47 1637.59 1053.47 1625.44V1504.01H1099.66V1625.15C1099.66 1643.27 1096.06 1658.6 1088.86 1671.12C1081.65 1683.65 1071.93 1693.1 1059.68 1699.46C1047.61 1705.82 1034.1 1709 1019.16 1709C1004.21 1709 990.789 1705.92 978.902 1699.75C967.195 1693.39 957.92 1683.94 951.076 1671.41C944.231 1658.69 940.809 1643.27 940.809 1625.15V1504.01H987.007Z" fill="#424143"/>
<path d="M1250.16 1671.12H1179.38L1168.03 1706.98H1119.68L1188.3 1504.01H1241.79L1310.41 1706.98H1261.51L1250.16 1671.12ZM1238.28 1632.96L1214.77 1558.65L1191.54 1632.96H1238.28Z" fill="#424143"/>
<path d="M1428.01 1706.98L1388.57 1630.36H1377.49V1706.98H1331.29V1504.01H1408.83C1423.78 1504.01 1436.47 1506.8 1446.92 1512.39C1457.55 1517.98 1465.47 1525.69 1470.7 1535.52C1475.92 1545.16 1478.53 1555.96 1478.53 1567.91C1478.53 1581.4 1474.93 1593.45 1467.72 1604.05C1460.7 1614.65 1450.25 1622.17 1436.38 1626.6L1480.15 1706.98H1428.01ZM1377.49 1595.37H1406.13C1414.59 1595.37 1420.9 1593.16 1425.04 1588.72C1429.36 1584.29 1431.52 1578.03 1431.52 1569.93C1431.52 1562.22 1429.36 1556.15 1425.04 1551.72C1420.9 1547.28 1414.59 1545.07 1406.13 1545.07H1377.49V1595.37Z" fill="#424143"/>
<path d="M1578.58 1504.01C1598.57 1504.01 1616.04 1508.25 1630.99 1516.73C1645.94 1525.21 1657.47 1537.16 1665.57 1552.58C1673.86 1567.81 1678 1585.45 1678 1605.49C1678 1625.35 1673.86 1642.98 1665.57 1658.4C1657.47 1673.82 1645.85 1685.77 1630.72 1694.25C1615.77 1702.74 1598.39 1706.98 1578.58 1706.98H1507.53V1504.01H1578.58ZM1575.61 1664.19C1593.08 1664.19 1606.68 1659.08 1616.4 1648.86C1626.13 1638.65 1630.99 1624.19 1630.99 1605.49C1630.99 1586.8 1626.13 1572.24 1616.4 1561.83C1606.68 1551.43 1593.08 1546.22 1575.61 1546.22H1553.73V1664.19H1575.61Z" fill="#424143"/>
</g>
<defs>
<clipPath id="clip0_1_2">
<rect width="2405" height="2405" fill="white"/>
</clipPath>
</defs>
</svg>
