<svg width="1942" height="1942" viewBox="0 0 1942 1942" fill="none" xmlns="http://www.w3.org/2000/svg">
<g clip-path="url(#clip0_1_2)">
<path d="M1942 0H0V1942H1942V0Z" fill="white"/>
<path d="M1444.11 526.58C1403.16 500.086 1340.4 504.109 1305.96 535.608C1250.21 586.635 1267.94 684.861 1085.14 691.435C1018.93 698.304 948.894 659.249 878.349 666.315C660.72 686.823 687.254 939.209 905.266 934.008C1158.74 917.915 1008.6 640.016 1344.86 657.876C1467.58 670.24 1510.7 569.56 1444.11 526.482V526.58ZM897.357 834.8C872.354 834.8 851.943 819.198 851.943 799.867C851.943 780.536 872.226 764.933 897.357 764.933C922.488 764.933 942.771 780.536 942.771 799.867C942.771 819.198 922.488 834.8 897.357 834.8ZM1378.54 602.826C1364.13 602.826 1352.39 593.798 1352.39 582.71C1352.39 571.621 1364.13 562.593 1378.54 562.593C1392.96 562.593 1404.69 571.621 1404.69 582.71C1404.69 593.798 1392.96 602.826 1378.54 602.826Z" fill="#AF1E39"/>
<path d="M1200.46 729.019C1197.78 731.177 1195.48 733.434 1193.44 735.789C1184.89 745.7 1181.96 758.064 1184.13 769.938C1189.49 799.278 1187.45 830.385 1175.07 862.473C1141.52 949.61 1040.49 1013.39 922.616 1020.36C749.379 1030.57 605.483 922.429 613.392 789.956C620.026 678.581 736.622 587.125 881.284 580.06C955.656 576.43 1024.41 594.681 1077.87 627.162C1086.79 632.559 1097 636.68 1108.23 638.054C1168.31 645.708 1213.34 606.359 1190.38 562.888C1183.87 550.524 1171.88 540.417 1157.98 532.468C1078.38 487.035 977.852 462.11 869.548 467.802C656 479.087 483.019 611.952 468.093 776.316C450.361 971.199 650.642 1133.6 900.291 1133.6C1149.94 1133.6 1333.51 984.348 1333.51 800.358C1333.51 785.638 1332.23 771.116 1329.81 756.887C1327.9 745.995 1322.28 735.495 1312.46 727.547C1296.64 714.692 1272.92 709.099 1240.26 713.711C1225.46 715.869 1211.17 720.58 1200.84 729.019H1200.46Z" fill="#AF1E39"/>
<path d="M722.441 1335.17C719.936 1328.45 716.311 1323.37 711.566 1319.92C706.952 1316.27 701.482 1314.45 695.154 1314.45C684.213 1314.45 675.447 1319.72 668.857 1330.28C662.266 1340.64 658.97 1354.55 658.97 1372.01C658.97 1390.62 662.397 1405.2 669.252 1415.75C676.238 1426.11 685.795 1431.29 697.922 1431.29C706.227 1431.29 713.213 1428.22 718.882 1422.08C724.682 1415.94 728.9 1407.12 731.536 1395.6H688.629V1359.34H762.184V1405.1C759.679 1417.38 755.395 1428.79 749.332 1439.35C743.4 1449.9 735.82 1458.44 726.593 1464.96C717.366 1471.48 706.952 1474.74 695.352 1474.74C681.643 1474.74 669.384 1470.43 658.575 1461.79C647.897 1452.97 639.527 1440.79 633.463 1425.25C627.531 1409.71 624.566 1391.96 624.566 1372.01C624.566 1352.05 627.531 1334.31 633.463 1318.77C639.527 1303.03 647.897 1290.85 658.575 1282.22C669.252 1273.39 681.445 1268.98 695.154 1268.98C711.763 1268.98 725.736 1274.83 737.073 1286.53C748.541 1298.24 756.12 1314.45 759.811 1335.17H722.441Z" fill="#424143"/>
<path d="M814.131 1271.28V1392.15C814.131 1404.24 816.174 1413.54 820.26 1420.07C824.347 1426.59 830.344 1429.85 838.253 1429.85C846.163 1429.85 852.226 1426.59 856.444 1420.07C860.663 1413.54 862.772 1404.24 862.772 1392.15V1271.28H896.583V1391.86C896.583 1409.9 893.947 1425.15 888.674 1437.62C883.401 1450.09 876.283 1459.49 867.319 1465.82C858.488 1472.15 848.601 1475.32 837.66 1475.32C826.719 1475.32 816.899 1472.25 808.199 1466.11C799.631 1459.78 792.842 1450.38 787.833 1437.91C782.824 1425.25 780.319 1409.9 780.319 1391.86V1271.28H814.131Z" fill="#424143"/>
<path d="M1006.73 1437.62H954.928L946.624 1473.31H911.23L961.453 1271.28H1000.6L1050.83 1473.31H1015.04L1006.73 1437.62ZM998.033 1399.63L980.83 1325.67L963.826 1399.63H998.033Z" fill="#424143"/>
<path d="M1136.9 1473.31L1108.03 1397.04H1099.92V1473.31H1066.11V1271.28H1122.86C1133.8 1271.28 1143.09 1274.06 1150.74 1279.63C1158.52 1285.19 1164.32 1292.86 1168.14 1302.65C1171.96 1312.24 1173.87 1322.99 1173.87 1334.88C1173.87 1348.31 1171.24 1360.3 1165.96 1370.85C1160.82 1381.41 1153.18 1388.89 1143.03 1393.3L1175.06 1473.31H1136.9ZM1099.92 1362.22H1120.88C1127.08 1362.22 1131.69 1360.01 1134.72 1355.6C1137.89 1351.19 1139.47 1344.95 1139.47 1336.9C1139.47 1329.22 1137.89 1323.18 1134.72 1318.77C1131.69 1314.35 1127.08 1312.15 1120.88 1312.15H1099.92V1362.22Z" fill="#424143"/>
<path d="M1247.1 1271.28C1261.73 1271.28 1274.52 1275.5 1285.46 1283.94C1296.4 1292.38 1304.84 1304.28 1310.77 1319.63C1316.83 1334.79 1319.86 1352.34 1319.86 1372.29C1319.86 1392.05 1316.83 1409.61 1310.77 1424.96C1304.84 1440.31 1296.33 1452.2 1285.26 1460.64C1274.32 1469.08 1261.6 1473.31 1247.1 1473.31H1195.1V1271.28H1247.1ZM1244.92 1430.71C1257.71 1430.71 1267.66 1425.63 1274.78 1415.46C1281.9 1405.29 1285.46 1390.9 1285.46 1372.29C1285.46 1353.68 1281.9 1339.2 1274.78 1328.84C1267.66 1318.48 1257.71 1313.3 1244.92 1313.3H1228.91V1430.71H1244.92Z" fill="#424143"/>
</g>
<defs>
<clipPath id="clip0_1_2">
<rect width="1942" height="1942" fill="white"/>
</clipPath>
</defs>
</svg>
