<svg width="1024" height="1024" viewBox="0 0 1024 1024" fill="none" xmlns="http://www.w3.org/2000/svg">
<g clip-path="url(#clip0_2_2)">
<path d="M1024 0H0V1024H1024V0Z" fill="white"/>
<path d="M761.222 202.936C739.63 184.732 706.535 187.496 688.374 209.139C658.979 244.197 668.329 311.685 571.938 316.203C537.027 320.922 500.099 294.089 462.901 298.943C348.147 313.034 362.138 486.44 477.094 482.866C610.75 471.809 531.579 280.874 708.89 293.145C773.599 301.64 796.335 232.466 761.222 202.868V202.936ZM472.924 414.704C459.74 414.704 448.977 403.984 448.977 390.702C448.977 377.42 459.672 366.701 472.924 366.701C486.175 366.701 496.87 377.42 496.87 390.702C496.87 403.984 486.175 414.704 472.924 414.704ZM726.648 255.322C719.047 255.322 712.858 249.119 712.858 241.5C712.858 233.882 719.047 227.679 726.648 227.679C734.249 227.679 740.437 233.882 740.437 241.5C740.437 249.119 734.249 255.322 726.648 255.322Z" fill="#AF1E39"/>
<path d="M632.746 342.025C631.333 343.508 630.122 345.059 629.046 346.677C624.539 353.486 622.992 361.981 624.136 370.139C626.961 390.298 625.885 411.67 619.36 433.717C601.669 493.586 548.395 537.41 486.242 542.197C394.896 549.208 319.021 474.911 323.191 383.893C326.689 307.37 388.17 244.534 464.448 239.68C503.664 237.186 539.92 249.726 568.104 272.042C572.812 275.75 578.194 278.582 584.113 279.526C615.795 284.785 639.54 257.749 627.432 227.882C624.001 219.387 617.678 212.442 610.346 206.981C568.373 175.765 515.368 158.641 458.26 162.551C345.658 170.304 254.446 261.592 246.576 374.521C237.227 508.419 342.833 620 474.471 620C606.109 620 702.903 517.453 702.903 391.039C702.903 380.926 702.231 370.948 700.953 361.172C699.944 353.688 696.984 346.474 691.805 341.013C683.464 332.181 670.952 328.338 653.732 331.507C645.93 332.99 638.396 336.226 632.948 342.025H632.746Z" fill="#AF1E39"/>
<path d="M262.577 758.492C260.072 753.878 256.447 750.385 251.702 748.012C247.088 745.507 241.618 744.255 235.29 744.255C224.349 744.255 215.584 747.88 208.993 755.13C202.402 762.248 199.106 771.805 199.106 783.801C199.106 796.587 202.534 806.605 209.388 813.855C216.374 820.973 225.931 824.533 238.059 824.533C246.363 824.533 253.35 822.423 259.018 818.205C264.818 813.987 269.036 807.923 271.672 800.014H228.765V775.101H302.32V806.539C299.816 814.976 295.531 822.819 289.468 830.069C283.536 837.319 275.956 843.185 266.729 847.667C257.502 852.148 247.088 854.389 235.488 854.389C221.779 854.389 209.52 851.423 198.711 845.492C188.034 839.428 179.663 831.058 173.599 820.38C167.668 809.703 164.702 797.51 164.702 783.801C164.702 770.092 167.668 757.898 173.599 747.221C179.663 736.412 188.034 728.041 198.711 722.11C209.388 716.046 221.581 713.014 235.29 713.014C251.9 713.014 265.872 717.035 277.209 725.076C288.677 733.116 296.256 744.255 299.947 758.492H262.577Z" fill="#424143"/>
<path d="M354.267 714.596V797.642C354.267 805.946 356.31 812.339 360.396 816.821C364.483 821.303 370.48 823.544 378.39 823.544C386.299 823.544 392.362 821.303 396.58 816.821C400.799 812.339 402.908 805.946 402.908 797.642V714.596H436.719V797.444C436.719 809.835 434.083 820.314 428.81 828.883C423.537 837.451 416.419 843.91 407.455 848.26C398.624 852.61 388.737 854.785 377.796 854.785C366.855 854.785 357.035 852.676 348.335 848.458C339.767 844.108 332.978 837.648 327.969 829.08C322.96 820.38 320.455 809.835 320.455 797.444V714.596H354.267Z" fill="#424143"/>
<path d="M546.869 828.883H495.064L486.76 853.401H451.366L501.589 714.596H540.739L590.962 853.401H555.173L546.869 828.883ZM538.169 802.782L520.967 751.966L503.962 802.782H538.169Z" fill="#424143"/>
<path d="M677.034 853.401L648.166 801.003H640.059V853.401H606.247V714.596H662.995C673.936 714.596 683.229 716.507 690.875 720.33C698.652 724.153 704.452 729.426 708.275 736.148C712.098 742.739 714.009 750.121 714.009 758.294C714.009 767.521 711.373 775.76 706.1 783.01C700.959 790.26 693.313 795.401 683.163 798.432L715.195 853.401H677.034ZM640.059 777.078H661.018C667.213 777.078 671.827 775.562 674.859 772.53C678.023 769.498 679.604 765.214 679.604 759.678C679.604 754.405 678.023 750.253 674.859 747.221C671.827 744.189 667.213 742.673 661.018 742.673H640.059V777.078Z" fill="#424143"/>
<path d="M787.236 714.596C801.868 714.596 814.654 717.496 825.595 723.296C836.536 729.096 844.973 737.269 850.904 747.814C856.968 758.228 860 770.289 860 783.998C860 797.576 856.968 809.637 850.904 820.183C844.973 830.728 836.47 838.901 825.397 844.701C814.457 850.501 801.736 853.401 787.236 853.401H735.234V714.596H787.236ZM785.061 824.137C797.847 824.137 807.8 820.644 814.918 813.658C822.036 806.671 825.595 796.785 825.595 783.998C825.595 771.212 822.036 761.26 814.918 754.141C807.8 747.023 797.847 743.464 785.061 743.464H769.045V824.137H785.061Z" fill="#424143"/>
</g>
<defs>
<clipPath id="clip0_2_2">
<rect width="1024" height="1024" fill="white"/>
</clipPath>
</defs>
</svg>
