<svg width="512" height="512" viewBox="0 0 512 512" fill="none" xmlns="http://www.w3.org/2000/svg">
<g clip-path="url(#clip0_2_2)">
<path d="M512 0H0V512H512V0Z" fill="#AF1E38"/>
<path d="M351.501 96.672C343.261 89.7252 330.632 90.7801 323.701 99.039C312.483 112.418 316.052 138.172 279.267 139.896C265.945 141.697 251.853 131.457 237.657 133.31C193.866 138.687 199.205 204.861 243.074 203.497C294.079 199.278 263.866 126.414 331.53 131.097C356.224 134.339 364.9 107.941 351.501 96.6462V96.672ZM241.482 177.486C236.451 177.486 232.344 173.395 232.344 168.326C232.344 163.258 236.425 159.167 241.482 159.167C246.539 159.167 250.62 163.258 250.62 168.326C250.62 173.395 246.539 177.486 241.482 177.486ZM338.307 116.663C335.406 116.663 333.045 114.296 333.045 111.389C333.045 108.481 335.406 106.114 338.307 106.114C341.207 106.114 343.569 108.481 343.569 111.389C343.569 114.296 341.207 116.663 338.307 116.663Z" fill="white"/>
<path d="M302.472 149.75C301.933 150.316 301.471 150.908 301.061 151.525C299.341 154.124 298.75 157.366 299.187 160.479C300.265 168.172 299.854 176.328 297.364 184.741C290.613 207.588 270.283 224.312 246.565 226.138C211.706 228.814 182.751 200.461 184.342 165.728C185.677 136.526 209.139 112.547 238.248 110.694C253.213 109.742 267.049 114.528 277.804 123.044C279.601 124.459 281.655 125.539 283.914 125.9C296.004 127.907 305.065 117.589 300.445 106.192C299.135 102.95 296.723 100.3 293.925 98.2157C277.907 86.3033 257.68 79.7682 235.886 81.2605C192.916 84.2193 158.108 119.056 155.105 162.151C151.537 213.248 191.838 255.829 242.073 255.829C292.307 255.829 329.246 216.696 329.246 168.455C329.246 164.596 328.989 160.788 328.501 157.057C328.116 154.201 326.987 151.448 325.01 149.364C321.827 145.994 317.053 144.527 310.481 145.736C307.504 146.303 304.629 147.537 302.549 149.75H302.472Z" fill="white"/>
<path d="M75.5753 354.6C66.2418 354.6 58.4793 351.451 52.2416 345.176C46.0039 338.901 42.885 331.12 42.885 321.858C42.885 312.595 46.0039 304.815 52.2416 298.54C58.4793 292.264 66.2418 289.115 75.5753 289.115C81.6051 289.115 87.0804 290.574 92.0475 293.468C96.9914 296.363 100.757 300.253 103.322 305.139L89.5755 313.197C88.3279 310.627 86.4566 308.612 83.9384 307.107C81.4202 305.625 78.6017 304.884 75.4598 304.884C70.6775 304.884 66.7038 306.482 63.585 309.654C60.443 312.85 58.872 316.925 58.872 321.881C58.872 326.836 60.443 330.796 63.585 333.968C66.727 337.164 70.6775 338.738 75.4598 338.738C78.671 338.738 81.5358 338.021 84.054 336.562C86.5721 335.126 88.4435 333.112 89.691 330.541L103.553 338.484C100.826 343.37 96.9914 347.283 92.0475 350.201C87.1035 353.142 81.6051 354.6 75.5753 354.6Z" fill="white"/>
<path d="M169.801 290.875H185.765V352.91H169.801V345.593C165.019 351.636 158.296 354.647 149.632 354.647C140.969 354.647 134.292 351.474 128.401 345.153C122.51 338.831 119.553 331.074 119.553 321.881C119.553 312.688 122.51 304.954 128.401 298.609C134.292 292.287 141.385 289.115 149.632 289.115C158.296 289.115 165.019 292.125 169.801 298.169V290.852V290.875ZM140.322 334.501C143.533 337.766 147.622 339.41 152.589 339.41C157.556 339.41 161.646 337.766 164.903 334.501C168.161 331.236 169.801 327.045 169.801 321.904C169.801 316.763 168.161 312.572 164.903 309.307C161.646 306.042 157.533 304.398 152.589 304.398C147.645 304.398 143.556 306.042 140.322 309.307C137.111 312.572 135.493 316.763 135.493 321.904C135.493 327.045 137.111 331.236 140.322 334.501Z" fill="white"/>
<path d="M217.706 302.04C219.184 298.058 221.656 295.094 225.075 293.102C228.495 291.111 232.33 290.115 236.534 290.115V307.992C231.66 307.413 227.316 308.408 223.481 310.979C219.646 313.549 217.729 317.81 217.729 323.761V353.424H201.765V291.389H217.729V302.064L217.706 302.04Z" fill="white"/>
<path d="M268.475 302.04C269.954 298.058 272.426 295.094 275.845 293.102C279.264 291.111 283.099 290.115 287.304 290.115V307.992C282.429 307.413 278.086 308.408 274.251 310.979C270.416 313.549 268.498 317.81 268.498 323.761V353.424H252.534V291.389H268.498V302.064L268.475 302.04Z" fill="white"/>
<path d="M345.166 291.138H361.13V353.173H345.166V346.226C341.285 352.015 335.139 354.91 326.707 354.91C319.938 354.91 314.347 352.641 309.934 348.079C305.522 343.54 303.304 337.242 303.304 329.207V291.115H319.268V327.215C319.268 331.36 320.377 334.509 322.618 336.709C324.836 338.909 327.816 339.997 331.535 339.997C335.671 339.997 338.974 338.724 341.446 336.154C343.918 333.583 345.166 329.739 345.166 324.622V291.115V291.138Z" fill="white"/>
<path d="M445.56 289.115C452.652 289.115 458.336 291.431 462.587 296.062C466.837 300.693 468.963 306.899 468.963 314.679V352.91H452.999V315.814C452.999 312.086 452.098 309.191 450.273 307.13C448.448 305.07 445.906 304.028 442.603 304.028C438.976 304.028 436.134 305.232 434.124 307.617C432.091 310.025 431.098 313.498 431.098 318.037V352.91H415.134V315.814C415.134 312.086 414.233 309.191 412.408 307.13C410.582 305.07 408.041 304.028 404.737 304.028C401.18 304.028 398.361 305.232 396.259 307.617C394.156 310.025 393.094 313.498 393.094 318.037V352.91H377.13V290.875H393.094V297.451C396.813 291.917 402.543 289.138 410.305 289.138C418.068 289.138 423.52 292.125 427.147 298.076C431.282 292.125 437.428 289.138 445.606 289.138L445.56 289.115Z" fill="white"/>
<path d="M170.634 396.91C169.773 395.325 168.527 394.124 166.897 393.309C165.311 392.448 163.431 392.018 161.257 392.018C157.497 392.018 154.485 393.263 152.22 395.755C149.955 398.201 148.823 401.485 148.823 405.607C148.823 410.001 150 413.444 152.356 415.935C154.757 418.381 158.041 419.604 162.208 419.604C165.062 419.604 167.463 418.879 169.411 417.43C171.404 415.98 172.853 413.897 173.759 411.179H159.015V402.617H184.291V413.421C183.43 416.32 181.958 419.015 179.874 421.507C177.836 423.998 175.231 426.014 172.06 427.554C168.89 429.094 165.311 429.864 161.325 429.864C156.614 429.864 152.401 428.845 148.687 426.807C145.018 424.723 142.141 421.846 140.058 418.177C138.019 414.508 137 410.318 137 405.607C137 400.896 138.019 396.706 140.058 393.037C142.141 389.323 145.018 386.446 148.687 384.408C152.356 382.324 156.546 381.282 161.257 381.282C166.964 381.282 171.766 382.664 175.662 385.427C179.603 388.19 182.207 392.018 183.476 396.91H170.634Z" fill="white"/>
<path d="M202.142 381.826V410.363C202.142 413.217 202.844 415.414 204.248 416.954C205.652 418.494 207.713 419.264 210.431 419.264C213.149 419.264 215.233 418.494 216.682 416.954C218.132 415.414 218.857 413.217 218.857 410.363V381.826H230.476V410.295C230.476 414.553 229.57 418.155 227.758 421.099C225.946 424.043 223.5 426.263 220.419 427.758C217.384 429.253 213.987 430 210.227 430C206.468 430 203.093 429.275 200.103 427.826C197.159 426.331 194.826 424.111 193.105 421.167C191.384 418.177 190.523 414.553 190.523 410.295V381.826H202.142Z" fill="white"/>
<path d="M268.327 421.099H250.525L247.671 429.524H235.509L252.767 381.826H266.221L283.479 429.524H271.181L268.327 421.099ZM265.337 412.13L259.426 394.668L253.583 412.13H265.337Z" fill="white"/>
<path d="M313.057 429.524L303.137 411.518H300.351V429.524H288.732V381.826H308.233C311.992 381.826 315.186 382.483 317.813 383.796C320.486 385.11 322.479 386.922 323.792 389.232C325.106 391.497 325.763 394.034 325.763 396.842C325.763 400.013 324.857 402.844 323.045 405.335C321.278 407.827 318.651 409.593 315.163 410.635L326.17 429.524H313.057ZM300.351 403.297H307.553C309.682 403.297 311.267 402.776 312.309 401.734C313.396 400.692 313.94 399.22 313.94 397.318C313.94 395.506 313.396 394.079 312.309 393.037C311.267 391.995 309.682 391.474 307.553 391.474H300.351V403.297Z" fill="white"/>
<path d="M350.926 381.826C355.954 381.826 360.348 382.822 364.108 384.815C367.868 386.809 370.767 389.617 372.805 393.241C374.889 396.819 375.931 400.964 375.931 405.675C375.931 410.341 374.889 414.486 372.805 418.109C370.767 421.733 367.845 424.542 364.04 426.535C360.28 428.528 355.909 429.524 350.926 429.524H333.056V381.826H350.926ZM350.179 419.468C354.573 419.468 357.993 418.268 360.439 415.867C362.885 413.466 364.108 410.069 364.108 405.675C364.108 401.281 362.885 397.861 360.439 395.415C357.993 392.969 354.573 391.746 350.179 391.746H344.675V419.468H350.179Z" fill="white"/>
</g>
<defs>
<clipPath id="clip0_2_2">
<rect width="512" height="512" rx="92" fill="white"/>
</clipPath>
</defs>
</svg>
