<svg width="206" height="169" viewBox="0 0 206 169" fill="none" xmlns="http://www.w3.org/2000/svg">
<path d="M149.21 7.5528C145.226 4.19419 139.12 4.7042 135.769 8.69721C130.345 15.1656 132.07 27.6173 114.286 28.4508C107.845 29.3215 101.032 24.3707 94.1686 25.2663C72.9961 27.8661 75.5775 59.86 96.7872 59.2007C121.447 57.1606 106.84 21.9326 139.554 24.1965C151.493 25.7639 155.688 13.0012 149.21 7.54036V7.5528ZM96.0177 46.6246C93.5853 46.6246 91.5996 44.6467 91.5996 42.1962C91.5996 39.7456 93.5729 37.7678 96.0177 37.7678C98.4626 37.7678 100.436 39.7456 100.436 42.1962C100.436 44.6467 98.4626 46.6246 96.0177 46.6246ZM142.83 17.2181C141.428 17.2181 140.286 16.0737 140.286 14.6681C140.286 13.2624 141.428 12.118 142.83 12.118C144.233 12.118 145.375 13.2624 145.375 14.6681C145.375 16.0737 144.233 17.2181 142.83 17.2181Z" fill="white"/>
<path d="M125.505 33.215C125.245 33.4887 125.021 33.7748 124.823 34.0733C123.991 35.3297 123.706 36.897 123.917 38.4022C124.438 42.1215 124.239 46.0648 123.035 50.1324C119.772 61.1785 109.942 69.264 98.4749 70.1472C81.6214 71.4409 67.6222 57.7328 68.3917 40.9398C69.037 26.8212 80.3803 15.2278 94.4539 14.3322C101.689 13.8719 108.379 16.1856 113.579 20.303C114.447 20.9872 115.44 21.5096 116.532 21.6838C122.378 22.6541 126.759 17.6659 124.525 12.1553C123.892 10.588 122.725 9.30671 121.372 8.29913C113.628 2.53974 103.849 -0.619834 93.3121 0.101644C72.5368 1.53216 55.7081 18.3749 54.256 39.2107C52.5309 63.9151 72.0156 84.5021 96.3031 84.5021C120.591 84.5021 138.449 65.582 138.449 42.2583C138.449 40.3925 138.325 38.5514 138.09 36.7478C137.903 35.367 137.357 34.036 136.402 33.0284C134.863 31.3989 132.554 30.6898 129.377 31.2745C127.938 31.5481 126.548 32.1452 125.542 33.215H125.505Z" fill="white"/>
<path d="M15.8051 132.256C11.2925 132.256 7.53953 130.733 4.52372 127.699C1.5079 124.665 0 120.904 0 116.426C0 111.947 1.5079 108.186 4.52372 105.152C7.53953 102.118 11.2925 100.595 15.8051 100.595C18.7204 100.595 21.3676 101.3 23.7691 102.7C26.1594 104.099 27.98 105.98 29.2198 108.342L22.5739 112.238C21.9707 110.996 21.066 110.022 19.8485 109.294C18.631 108.577 17.2683 108.219 15.7492 108.219C13.4371 108.219 11.5159 108.992 10.008 110.525C8.48895 112.07 7.72941 114.041 7.72941 116.437C7.72941 118.833 8.48895 120.747 10.008 122.281C11.5271 123.826 13.4371 124.587 15.7492 124.587C17.3018 124.587 18.6869 124.24 19.9043 123.535C21.1218 122.841 22.0266 121.867 22.6297 120.624L29.3315 124.464C28.0135 126.826 26.1594 128.718 23.7691 130.129C21.3787 131.551 18.7204 132.256 15.8051 132.256Z" fill="white"/>
<path d="M61.3613 101.446H69.0795V131.439H61.3613V127.901C59.0492 130.823 55.7988 132.278 51.6102 132.278C47.4215 132.278 44.1935 130.745 41.3452 127.688C38.497 124.632 37.0673 120.881 37.0673 116.437C37.0673 111.992 38.497 108.253 41.3452 105.185C44.1935 102.129 47.6226 100.595 51.6102 100.595C55.7988 100.595 59.0492 102.051 61.3613 104.973V101.435V101.446ZM47.1088 122.538C48.6614 124.117 50.6384 124.912 53.0399 124.912C55.4414 124.912 57.4184 124.117 58.9933 122.538C60.5682 120.96 61.3613 118.933 61.3613 116.448C61.3613 113.963 60.5682 111.936 58.9933 110.358C57.4184 108.779 55.4302 107.984 53.0399 107.984C50.6496 107.984 48.6725 108.779 47.1088 110.358C45.5562 111.936 44.7743 113.963 44.7743 116.448C44.7743 118.933 45.5562 120.96 47.1088 122.538Z" fill="white"/>
<path d="M84.5223 106.844C85.2371 104.919 86.4323 103.486 88.0854 102.523C89.7385 101.56 91.5927 101.079 93.6255 101.079V109.722C91.2687 109.442 89.1688 109.923 87.3147 111.166C85.4605 112.408 84.5334 114.468 84.5334 117.346V131.687H76.8152V101.694H84.5334V106.855L84.5223 106.844Z" fill="white"/>
<path d="M109.068 106.844C109.783 104.919 110.978 103.486 112.631 102.523C114.284 101.56 116.139 101.079 118.171 101.079V109.722C115.815 109.442 113.715 109.923 111.861 111.166C110.006 112.408 109.079 114.468 109.079 117.346V131.687H101.361V101.694H109.079V106.855L109.068 106.844Z" fill="white"/>
<path d="M146.147 101.573H153.865V131.566H146.147V128.207C144.27 131.006 141.299 132.406 137.222 132.406C133.949 132.406 131.246 131.308 129.113 129.103C126.98 126.909 125.907 123.863 125.907 119.979V101.562H133.625V119.016C133.625 121.02 134.162 122.542 135.245 123.606C136.317 124.67 137.758 125.196 139.557 125.196C141.556 125.196 143.153 124.58 144.348 123.337C145.544 122.095 146.147 120.236 146.147 117.762V101.562V101.573Z" fill="white"/>
<path d="M194.685 100.595C198.114 100.595 200.862 101.715 202.917 103.954C204.972 106.193 206 109.193 206 112.955V131.439H198.282V113.503C198.282 111.701 197.846 110.302 196.964 109.305C196.081 108.309 194.853 107.805 193.255 107.805C191.502 107.805 190.128 108.387 189.156 109.54C188.173 110.705 187.693 112.384 187.693 114.578V131.439H179.975V113.503C179.975 111.701 179.539 110.302 178.657 109.305C177.774 108.309 176.546 107.805 174.948 107.805C173.228 107.805 171.866 108.387 170.849 109.54C169.833 110.705 169.319 112.384 169.319 114.578V131.439H161.601V101.446H169.319V104.625C171.117 101.95 173.887 100.606 177.64 100.606C181.393 100.606 184.029 102.051 185.783 104.928C187.782 102.051 190.753 100.606 194.707 100.606L194.685 100.595Z" fill="white"/>
<path d="M61.7639 152.712C61.3477 151.945 60.7455 151.365 59.9571 150.971C59.1905 150.555 58.2817 150.346 57.2304 150.346C55.4127 150.346 53.9563 150.949 52.8613 152.153C51.7662 153.336 51.2187 154.924 51.2187 156.917C51.2187 159.041 51.7881 160.705 52.927 161.91C54.0877 163.093 55.6755 163.684 57.6903 163.684C59.0701 163.684 60.2308 163.334 61.1725 162.633C62.1362 161.932 62.837 160.924 63.275 159.61H56.1464V155.471H68.3669V160.695C67.9508 162.096 67.239 163.399 66.2316 164.604C65.246 165.808 63.9868 166.783 62.4537 167.527C60.9207 168.272 59.1905 168.644 57.2633 168.644C54.9856 168.644 52.9489 168.152 51.153 167.166C49.3791 166.159 47.9884 164.768 46.981 162.994C45.9954 161.22 45.5027 159.194 45.5027 156.917C45.5027 154.639 45.9954 152.613 46.981 150.839C47.9884 149.043 49.3791 147.653 51.153 146.667C52.927 145.66 54.9528 145.156 57.2304 145.156C59.9899 145.156 62.3114 145.824 64.1948 147.16C66.1002 148.496 67.3594 150.347 67.9727 152.712H61.7639Z" fill="white"/>
<path d="M76.9974 145.419V159.216C76.9974 160.596 77.3369 161.658 78.0158 162.403C78.6947 163.147 79.6912 163.52 81.0052 163.52C82.3192 163.52 83.3267 163.147 84.0275 162.403C84.7283 161.658 85.0787 160.596 85.0787 159.216V145.419H90.6962V159.183C90.6962 161.242 90.2582 162.983 89.3822 164.407C88.5061 165.83 87.3235 166.903 85.8343 167.626C84.3669 168.349 82.7244 168.71 80.9067 168.71C79.0889 168.71 77.4573 168.36 76.0119 167.659C74.5883 166.936 73.4605 165.863 72.6282 164.44C71.796 162.994 71.3799 161.242 71.3799 159.183V145.419H76.9974Z" fill="white"/>
<path d="M108.997 164.407H100.39L99.01 168.48H93.1297L101.474 145.419H107.978L116.322 168.48H110.376L108.997 164.407ZM107.551 160.07L104.693 151.628L101.868 160.07H107.551Z" fill="white"/>
<path d="M130.623 168.48L125.826 159.775H124.479V168.48H118.862V145.419H128.29C130.108 145.419 131.652 145.736 132.922 146.372C134.214 147.007 135.178 147.883 135.813 149C136.448 150.095 136.766 151.321 136.766 152.679C136.766 154.212 136.328 155.581 135.452 156.785C134.597 157.99 133.327 158.844 131.641 159.348L136.963 168.48H130.623ZM124.479 155.8H127.962C128.991 155.8 129.757 155.548 130.261 155.044C130.787 154.54 131.05 153.829 131.05 152.909C131.05 152.033 130.787 151.343 130.261 150.839C129.757 150.336 128.991 150.084 127.962 150.084H124.479V155.8Z" fill="white"/>
<path d="M148.932 145.419C151.363 145.419 153.487 145.901 155.305 146.864C157.123 147.828 158.524 149.186 159.51 150.938C160.517 152.668 161.021 154.672 161.021 156.95C161.021 159.205 160.517 161.209 159.51 162.961C158.524 164.713 157.112 166.071 155.272 167.035C153.454 167.998 151.341 168.48 148.932 168.48H140.292V145.419H148.932ZM148.57 163.618C150.695 163.618 152.348 163.038 153.531 161.877C154.713 160.716 155.305 159.074 155.305 156.95C155.305 154.825 154.713 153.172 153.531 151.989C152.348 150.806 150.695 150.215 148.57 150.215H145.909V163.618H148.57Z" fill="white"/>
</svg>
