<svg width="258" height="220" viewBox="0 0 258 220" fill="none" xmlns="http://www.w3.org/2000/svg">
<rect width="258" height="220" fill="white"/>
<path d="M186.818 9.45645C181.83 5.25132 174.185 5.88987 169.989 10.8893C163.199 18.9881 165.359 34.5783 143.092 35.6218C135.027 36.712 126.496 30.5133 117.904 31.6347C91.3946 34.8898 94.6267 74.9476 121.182 74.1221C152.058 71.5679 133.769 27.4607 174.729 30.2952C189.677 32.2576 194.929 16.2781 186.818 9.44088V9.45645ZM120.219 58.3762C117.173 58.3762 114.687 55.8999 114.687 52.8317C114.687 49.7635 117.158 47.2871 120.219 47.2871C123.28 47.2871 125.751 49.7635 125.751 52.8317C125.751 55.8999 123.28 58.3762 120.219 58.3762ZM178.831 21.5579C177.075 21.5579 175.645 20.125 175.645 18.3651C175.645 16.6052 177.075 15.1723 178.831 15.1723C180.587 15.1723 182.016 16.6052 182.016 18.3651C182.016 20.125 180.587 21.5579 178.831 21.5579Z" fill="#AF1E38"/>
<path d="M157.139 41.5868C156.812 41.9295 156.533 42.2877 156.284 42.6615C155.243 44.2345 154.886 46.1969 155.15 48.0814C155.802 52.7382 155.554 57.6754 154.047 62.7683C149.96 76.5985 137.653 86.722 123.296 87.8278C102.194 89.4475 84.6664 72.2843 85.6298 51.2586C86.4378 33.5815 100.64 19.066 118.261 17.9446C127.32 17.3683 135.695 20.2652 142.206 25.4204C143.294 26.277 144.537 26.9311 145.904 27.1492C153.223 28.364 158.708 22.1186 155.911 15.2191C155.119 13.2567 153.658 11.6525 151.964 10.3909C142.268 3.1799 130.024 -0.776047 116.831 0.127279C90.8197 1.91836 69.7493 23.0063 67.9313 49.0938C65.7714 80.0249 90.1671 105.801 120.576 105.801C150.985 105.801 173.346 82.1119 173.346 52.9095C173.346 50.5734 173.19 48.2683 172.895 46.01C172.662 44.2812 171.978 42.6147 170.782 41.3532C168.855 39.3129 165.965 38.4252 161.987 39.1572C160.184 39.4998 158.444 40.2474 157.185 41.5868H157.139Z" fill="#AF1E38"/>
<path d="M19.7887 173.442C14.1388 173.442 9.43986 171.535 5.66391 167.737C1.88797 163.938 0 159.228 0 153.621C0 148.014 1.88797 143.305 5.66391 139.506C9.43986 135.707 14.1388 133.801 19.7887 133.801C23.4388 133.801 26.7533 134.684 29.76 136.436C32.7528 138.188 35.0324 140.543 36.5847 143.501L28.2636 148.379C27.5084 146.823 26.3757 145.603 24.8513 144.692C23.3269 143.795 21.6208 143.347 19.7188 143.347C16.8239 143.347 14.4185 144.314 12.5305 146.234C10.6286 148.169 9.6776 150.636 9.6776 153.635C9.6776 156.635 10.6286 159.032 12.5305 160.952C14.4325 162.887 16.8239 163.84 19.7188 163.84C21.6627 163.84 23.3969 163.405 24.9212 162.522C26.4456 161.653 27.5784 160.434 28.3336 158.878L36.7245 163.686C35.0743 166.643 32.7528 169.012 29.76 170.778C26.7672 172.559 23.4388 173.442 19.7887 173.442Z" fill="#424143"/>
<path d="M76.8273 134.866H86.4909V172.419H76.8273V167.989C73.9324 171.648 69.8628 173.47 64.6184 173.47C59.374 173.47 55.3324 171.549 51.7662 167.723C48.2 163.896 46.41 159.2 46.41 153.635C46.41 148.07 48.2 143.389 51.7662 139.548C55.3324 135.721 59.6258 133.801 64.6184 133.801C69.8628 133.801 73.9324 135.623 76.8273 139.282V134.852V134.866ZM58.9825 161.275C60.9264 163.251 63.4017 164.246 66.4085 164.246C69.4153 164.246 71.8906 163.251 73.8625 161.275C75.8344 159.298 76.8273 156.761 76.8273 153.649C76.8273 150.538 75.8344 148 73.8625 146.024C71.8906 144.047 69.4013 143.052 66.4085 143.052C63.4157 143.052 60.9404 144.047 58.9825 146.024C57.0385 148 56.0596 150.538 56.0596 153.649C56.0596 156.761 57.0385 159.298 58.9825 161.275Z" fill="#424143"/>
<path d="M105.826 141.625C106.721 139.214 108.217 137.42 110.287 136.214C112.357 135.009 114.679 134.406 117.224 134.406V145.228C114.273 144.877 111.644 145.48 109.322 147.036C107.001 148.592 105.84 151.171 105.84 154.773V172.729H96.1764V135.177H105.84V141.639L105.826 141.625Z" fill="#424143"/>
<path d="M136.559 141.625C137.454 139.214 138.95 137.42 141.02 136.214C143.09 135.009 145.411 134.406 147.957 134.406V145.228C145.006 144.877 142.377 145.48 140.055 147.036C137.734 148.592 136.573 151.171 136.573 154.773V172.729H126.909V135.177H136.573V141.639L136.559 141.625Z" fill="#424143"/>
<path d="M182.983 135.026H192.646V172.578H182.983V168.373C180.633 171.877 176.913 173.629 171.809 173.629C167.711 173.629 164.327 172.255 161.656 169.494C158.985 166.747 157.642 162.934 157.642 158.07V135.012H167.306V156.864C167.306 159.374 167.977 161.28 169.333 162.612C170.676 163.943 172.48 164.602 174.732 164.602C177.235 164.602 179.235 163.831 180.731 162.275C182.228 160.719 182.983 158.392 182.983 155.295V135.012V135.026Z" fill="#424143"/>
<path d="M243.755 133.801C248.049 133.801 251.489 135.203 254.062 138.006C256.635 140.809 257.922 144.566 257.922 149.276V172.419H248.258V149.963C248.258 147.706 247.713 145.954 246.608 144.706C245.503 143.459 243.965 142.828 241.965 142.828C239.77 142.828 238.049 143.557 236.833 145.001C235.602 146.458 235.001 148.561 235.001 151.308V172.419H225.337V149.963C225.337 147.706 224.792 145.954 223.687 144.706C222.582 143.459 221.044 142.828 219.044 142.828C216.89 142.828 215.184 143.557 213.911 145.001C212.639 146.458 211.995 148.561 211.995 151.308V172.419H202.332V134.866H211.995V138.847C214.247 135.497 217.715 133.815 222.414 133.815C227.113 133.815 230.414 135.623 232.609 139.226C235.113 135.623 238.833 133.815 243.783 133.815L243.755 133.801Z" fill="#424143"/>
<path d="M77.3314 199.203C76.8104 198.243 76.0563 197.516 75.0692 197.023C74.1095 196.502 72.9715 196.241 71.6553 196.241C69.3794 196.241 67.556 196.995 66.1849 198.503C64.8139 199.984 64.1284 201.972 64.1284 204.467C64.1284 207.127 64.8413 209.211 66.2672 210.719C67.7205 212.2 69.7085 212.94 72.2312 212.94C73.9587 212.94 75.412 212.502 76.591 211.624C77.7975 210.747 78.675 209.485 79.2234 207.84H70.298V202.658H85.5987V209.197C85.0777 210.952 84.1865 212.584 82.9252 214.092C81.6913 215.6 80.1146 216.82 78.1951 217.753C76.2757 218.685 74.1095 219.151 71.6965 219.151C68.8447 219.151 66.2946 218.534 64.0461 217.3C61.8251 216.039 60.0839 214.298 58.8225 212.077C57.5886 209.856 56.9716 207.319 56.9716 204.467C56.9716 201.616 57.5886 199.079 58.8225 196.858C60.0839 194.61 61.8251 192.868 64.0461 191.635C66.2672 190.373 68.8036 189.743 71.6553 189.743C75.1103 189.743 78.0169 190.579 80.3751 192.252C82.7607 193.924 84.3374 196.241 85.1051 199.203H77.3314Z" fill="#424143"/>
<path d="M96.4046 190.072V207.347C96.4046 209.074 96.8296 210.404 97.6796 211.336C98.5296 212.269 99.7773 212.735 101.423 212.735C103.068 212.735 104.329 212.269 105.207 211.336C106.084 210.404 106.523 209.074 106.523 207.347V190.072H113.556V207.305C113.556 209.883 113.008 212.063 111.911 213.845C110.814 215.628 109.333 216.971 107.469 217.876C105.632 218.781 103.575 219.233 101.299 219.233C99.0232 219.233 96.9804 218.795 95.1706 217.917C93.3883 217.012 91.9761 215.669 90.9341 213.886C89.8922 212.077 89.3712 209.883 89.3712 207.305V190.072H96.4046Z" fill="#424143"/>
<path d="M136.469 213.845H125.693L123.965 218.945H116.603L127.05 190.072H135.194L145.641 218.945H138.197L136.469 213.845ZM134.659 208.416L131.081 197.845L127.544 208.416H134.659Z" fill="#424143"/>
<path d="M163.546 218.945L157.541 208.046H155.854V218.945H148.821V190.072H160.626C162.901 190.072 164.835 190.469 166.425 191.264C168.043 192.06 169.249 193.156 170.045 194.555C170.84 195.926 171.237 197.461 171.237 199.161C171.237 201.081 170.689 202.795 169.592 204.303C168.523 205.811 166.932 206.88 164.821 207.511L171.484 218.945H163.546ZM155.854 203.069H160.214C161.503 203.069 162.463 202.754 163.093 202.123C163.752 201.492 164.081 200.601 164.081 199.449C164.081 198.353 163.752 197.489 163.093 196.858C162.463 196.227 161.503 195.912 160.214 195.912H155.854V203.069Z" fill="#424143"/>
<path d="M186.47 190.072C189.514 190.072 192.173 190.675 194.449 191.881C196.725 193.088 198.48 194.788 199.714 196.982C200.975 199.148 201.606 201.657 201.606 204.509C201.606 207.333 200.975 209.842 199.714 212.035C198.48 214.229 196.711 215.929 194.408 217.136C192.132 218.342 189.486 218.945 186.47 218.945H175.652V190.072H186.47ZM186.017 212.858C188.677 212.858 190.748 212.131 192.228 210.678C193.709 209.225 194.449 207.168 194.449 204.509C194.449 201.849 193.709 199.778 192.228 198.298C190.748 196.817 188.677 196.077 186.017 196.077H182.686V212.858H186.017Z" fill="#424143"/>
</svg>
